<svg width="56" height="38" viewBox="0 0 56 38" fill="none" xmlns="http://www.w3.org/2000/svg">
<g clip-path="url(#clip0)">
<path d="M52.5018 6.10107V13.8024H50.3477V6.10107H52.5018Z" fill="white"/>
<path d="M5.76807 9.49418H4.69336V7.45269H5.89479C6.02833 7.4403 6.16296 7.45757 6.28905 7.50326C6.41514 7.54895 6.52957 7.62193 6.62418 7.71699C6.71879 7.81204 6.79123 7.92683 6.83632 8.05313C6.88142 8.17944 6.89805 8.31414 6.88503 8.44762C6.88949 8.59297 6.8632 8.73762 6.80787 8.8721C6.75255 9.00658 6.66944 9.12786 6.56399 9.22799C6.45854 9.32812 6.33313 9.40485 6.19597 9.45315C6.05881 9.50145 5.913 9.52023 5.76807 9.50826V9.49418ZM5.76807 6.11046H2.56738V13.8259H4.69336V10.8786H6.32186C8.03484 10.8786 8.91714 10.062 8.91714 8.44762C8.91714 6.8332 8.06769 6.10107 5.77746 6.10107" fill="white"/>
<path d="M14.943 12.5398C13.8166 12.5398 13.1455 11.6012 13.1455 9.97741C13.1455 7.4713 14.5112 7.27419 14.9289 7.27419C15.5531 7.27419 16.5902 7.62617 16.5902 9.96333C16.5902 11.5778 15.9754 12.5398 14.943 12.5398ZM15.004 5.96951C12.5964 5.96951 11.104 7.50415 11.104 9.97272C11.104 12.4413 12.4838 13.9431 14.8866 13.9431C17.2895 13.9431 18.688 12.4319 18.688 9.90232C18.688 7.37275 17.3646 5.94604 15.018 5.94604" fill="white"/>
<path d="M21.2925 10.0667C21.2925 7.4808 22.738 5.93677 25.1596 5.93677C27.065 5.93677 28.257 6.87539 28.3321 8.40534H26.2812C26.2392 8.1034 26.0839 7.82875 25.8469 7.63704C25.6098 7.44532 25.3088 7.35088 25.0047 7.37285C24.1928 7.37285 23.3715 8.14722 23.3715 9.87897C23.3715 12.1927 24.3758 12.54 24.9766 12.54C25.1487 12.558 25.3228 12.5409 25.4882 12.4896C25.6535 12.4382 25.8067 12.3538 25.9384 12.2414C26.0701 12.1291 26.1776 11.9911 26.2543 11.8358C26.3309 11.6806 26.3753 11.5114 26.3845 11.3385H28.4729C28.3978 12.9576 27.1213 13.962 25.0892 13.962C23.3715 13.962 21.3347 13.2862 21.3347 10.0667" fill="white"/>
<path d="M32.9784 10.8692L34.1751 7.50895L35.3437 10.8645H32.9972L32.9784 10.8692ZM35.4188 6.06348H33.091L29.9795 13.7977H31.913L32.4715 12.2255H35.7802C35.7802 12.2255 36.2495 13.6334 36.3293 13.7977H38.5585L35.4 6.06817" fill="white"/>
<path d="M43.8478 9.35331H42.5712V7.47607H43.89C44.7254 7.47607 44.9647 7.89845 44.9647 8.35368C44.9647 8.91216 44.7864 9.37208 43.8478 9.37208V9.35331ZM46.7903 12.0096C46.7903 10.076 45.4528 9.90709 45.4528 9.90709C45.4528 9.90709 46.9921 9.86486 46.9593 7.96415C46.9593 6.67824 46.4383 6.08691 43.5756 6.08691H40.4922V13.8024H42.5712V10.7941H43.829C44.6268 10.7941 44.7347 11.5262 44.7347 12.3147C44.7269 12.8435 44.8719 13.3634 45.1524 13.8117H47.2409C46.9526 13.25 46.7923 12.6313 46.7716 12.0002" fill="white"/>
<path d="M6.74859 20.4525C6.74859 19.7063 5.80997 19.4811 4.9089 19.2699C3.63707 18.9742 2.4591 18.4908 2.4591 17.0125C2.4591 15.7031 3.73093 14.7129 5.41575 14.7129C6.66881 14.7129 7.56049 14.971 8.07204 15.4919C8.25951 15.6968 8.40324 15.9377 8.49442 16.1999C8.5856 16.4622 8.62233 16.7403 8.60236 17.0172H6.57025C6.58508 16.8757 6.56755 16.7327 6.51898 16.599C6.47042 16.4653 6.39209 16.3443 6.28993 16.2453C6.18776 16.1463 6.06442 16.0718 5.92924 16.0275C5.79406 15.9832 5.65057 15.9701 5.50961 15.9894C5.39171 15.9744 5.272 15.9836 5.15774 16.0162C5.04347 16.0489 4.93704 16.1045 4.84488 16.1795C4.75272 16.2545 4.67677 16.3475 4.62162 16.4528C4.56647 16.5581 4.53328 16.6734 4.52406 16.7919C4.52406 17.4865 5.16232 17.6508 6.56086 18.0168C7.77638 18.336 8.86987 18.7443 8.86987 20.2648C8.86987 21.7854 7.6262 22.7475 5.69734 22.7475C3.45404 22.7475 2.34177 21.8839 2.28076 20.124H4.29879C4.29158 20.2959 4.31995 20.4674 4.38213 20.6277C4.44431 20.7881 4.53896 20.9339 4.66014 21.0559C4.78132 21.178 4.92641 21.2737 5.08632 21.337C5.24623 21.4004 5.4175 21.43 5.58939 21.424C5.7306 21.4416 5.87393 21.4299 6.01038 21.3895C6.14683 21.3491 6.27345 21.2809 6.3823 21.1892C6.49115 21.0976 6.57988 20.9844 6.64291 20.8568C6.70594 20.7292 6.74192 20.59 6.74859 20.4479" fill="white"/>
<path d="M16.853 16.5477L15.1963 22.569H12.9437L10.644 14.8395H12.7888L14.1967 20.5791L15.6046 14.8301H18.092" fill="white"/>
<path d="M18.0967 14.8301L19.5046 20.5791L20.9126 14.8395H23.0573L20.7577 22.569H18.5097L16.853 16.5477" fill="white"/>
<path d="M30.5803 14.8489V16.1864H27.2952V17.8337H30.341V19.2416H27.2811V21.0907H30.6836V22.5737H25.2114V14.8489H30.5803Z" fill="white"/>
<path d="M35.5222 19.7111L36.7189 16.3602L37.8875 19.7111H35.541H35.5222ZM37.9767 14.8584H35.6677C35.602 15.0367 32.7063 22.2125 32.5562 22.5879H34.4991L35.0576 21.0157H38.3709L38.92 22.5879H41.1445C40.9709 22.2172 38.0142 15.018 37.9579 14.8631" fill="white"/>
<path d="M48.3623 14.8489V16.3131H45.9594V22.5737H43.9226V16.3131H41.4775V14.8489H48.3623Z" fill="white"/>
<path d="M2.93814 2.58594H2.56738V4.31769H2.93814V2.58594Z" fill="white"/>
<path d="M4.1064 4.3505C4.22317 4.35632 4.3398 4.3364 4.44803 4.29214C4.55626 4.24789 4.65343 4.1804 4.73268 4.09443C4.81193 4.00846 4.87132 3.90613 4.90664 3.79467C4.94196 3.68321 4.95235 3.56535 4.93707 3.44943C4.95235 3.33351 4.94196 3.21564 4.90664 3.10418C4.87132 2.99272 4.81193 2.89039 4.73268 2.80442C4.65343 2.71845 4.55626 2.65096 4.44803 2.60671C4.3398 2.56246 4.22317 2.54253 4.1064 2.54835C3.99039 2.54395 3.87482 2.56492 3.76775 2.60979C3.66068 2.65467 3.5647 2.72237 3.4865 2.80816C3.4083 2.89396 3.34976 2.99579 3.31498 3.10655C3.28019 3.21731 3.27 3.33432 3.2851 3.44943C3.27 3.56453 3.28019 3.68154 3.31498 3.7923C3.34976 3.90306 3.4083 4.00489 3.4865 4.09069C3.5647 4.17649 3.66068 4.24419 3.76775 4.28906C3.87482 4.33393 3.99039 4.3549 4.1064 4.3505ZM4.1064 2.81586C4.47246 2.81586 4.54285 3.15376 4.54285 3.44943C4.54285 3.74509 4.47246 4.08299 4.1064 4.08299C3.74033 4.08299 3.66994 3.75448 3.66994 3.44943C3.66994 3.14437 3.75441 2.81586 4.1064 2.81586Z" fill="white"/>
<path d="M6.27955 4.31769L5.59905 2.87691L5.58967 2.8816V4.31769H5.24707V2.58594H5.79616L6.4532 3.94694L6.45789 3.94224V2.58594H6.80987V4.31769H6.27955Z" fill="white"/>
<path d="M9.04385 3.07874C9.04484 3.0415 9.03775 3.00449 9.02307 2.97025C9.0084 2.93601 8.98648 2.90535 8.95884 2.88038C8.93119 2.85541 8.89847 2.83672 8.86292 2.8256C8.82737 2.81447 8.78983 2.81117 8.75288 2.81592C8.72008 2.81203 8.68682 2.81484 8.65513 2.82418C8.62345 2.83352 8.59398 2.84919 8.56853 2.87026C8.54308 2.89132 8.52217 2.91733 8.50707 2.94671C8.49197 2.9761 8.48299 3.00824 8.48068 3.04119C8.48068 3.22892 8.64494 3.24769 8.79512 3.28523C9.05793 3.35094 9.44746 3.42603 9.44746 3.75454C9.44746 4.18162 9.07201 4.33179 8.70126 4.33179C8.3305 4.33179 8.02545 4.22385 8.03953 3.75454H8.41498C8.40763 3.79564 8.40984 3.83787 8.42142 3.87798C8.433 3.91809 8.45366 3.955 8.48179 3.98585C8.50991 4.01669 8.54476 4.04066 8.58363 4.05589C8.6225 4.07112 8.66435 4.0772 8.70595 4.07367C8.85613 4.07367 9.05324 4.03144 9.05324 3.84371C9.05324 3.65599 8.80451 3.62783 8.65902 3.59029C8.41498 3.52927 8.08177 3.41664 8.08177 3.12098C8.08177 2.72206 8.44783 2.54842 8.80451 2.54842C8.87836 2.54119 8.95291 2.54955 9.02334 2.57295C9.09376 2.59634 9.15849 2.63426 9.21334 2.68424C9.26819 2.73423 9.31194 2.79517 9.34176 2.86312C9.37158 2.93107 9.3868 3.00453 9.38645 3.07874H9.02977" fill="white"/>
<path d="M11.1881 2.58594V3.67004C11.1909 3.76632 11.1728 3.86206 11.1351 3.95067C11.0974 4.03929 11.0409 4.11866 10.9695 4.18334C10.8981 4.24802 10.8136 4.29646 10.7217 4.32532C10.6298 4.35419 10.5327 4.36279 10.4372 4.35054C10.3417 4.36279 10.2446 4.35419 10.1527 4.32532C10.0609 4.29646 9.97631 4.24802 9.90494 4.18334C9.83357 4.11866 9.77707 4.03929 9.73933 3.95067C9.70159 3.86206 9.6835 3.76632 9.68632 3.67004V2.58594H10.0571V3.52456C10.0571 3.82022 10.0571 4.08304 10.4372 4.08304C10.8174 4.08304 10.8174 3.82022 10.8174 3.52456V2.58594H11.1881Z" fill="white"/>
<path d="M11.8971 4.31769V3.65127H12.1693C12.5542 3.65127 12.77 3.43069 12.77 3.11626C12.77 2.6798 12.4462 2.58594 12.0614 2.58594H11.5264V4.31769H11.8971ZM11.8971 2.87222C12.1036 2.87222 12.3664 2.81121 12.3664 3.11626C12.3664 3.42131 12.0989 3.35091 11.8971 3.3603V2.89099" fill="white"/>
<path d="M13.413 4.31769V3.65127H13.6806C14.0701 3.65127 14.2813 3.43069 14.2813 3.11626C14.2813 2.6798 13.9574 2.58594 13.5726 2.58594H13.0376V4.31769H13.413ZM13.413 2.87222C13.6195 2.87222 13.8824 2.81121 13.8824 3.11626C13.8824 3.42131 13.6148 3.35091 13.413 3.3603V2.89099" fill="white"/>
<path d="M14.5625 4.31769V2.58594H14.9333V4.02672H15.6841V4.31769H14.5625Z" fill="white"/>
<path d="M16.0551 3.74983L15.4731 2.58594H15.9049L16.2663 3.37907L16.6276 2.58594H17.0125L16.4305 3.74983V4.31769H16.0551V3.74983Z" fill="white"/>
<path d="M17.9604 4.3177H18.5518C18.6698 4.33388 18.79 4.32261 18.9029 4.28478C19.0159 4.24694 19.1186 4.18355 19.203 4.09955C19.2875 4.01554 19.3514 3.91318 19.3899 3.80043C19.4283 3.68768 19.4402 3.56758 19.4247 3.44948C19.4394 3.33173 19.4269 3.21218 19.3881 3.10003C19.3493 2.98789 19.2853 2.88616 19.2009 2.80271C19.1166 2.71926 19.0142 2.65631 18.9016 2.61872C18.789 2.58114 18.6694 2.56993 18.5518 2.58595H17.9604V4.3177ZM18.3312 2.87223H18.5236C18.9648 2.87223 19.0305 3.17259 19.0305 3.44948C19.0305 3.72637 18.9648 4.03142 18.5236 4.02673H18.3312V2.87223Z" fill="white"/>
<path d="M20.1005 3.61837H20.49C20.612 3.61837 20.6402 3.75447 20.6496 3.84833C20.6589 3.94219 20.6824 4.16276 20.7106 4.31764H21.1189C21.0588 4.18767 21.0238 4.04757 21.0156 3.90464C20.9875 3.6653 20.9875 3.49165 20.7012 3.43533C20.8015 3.42155 20.8933 3.37138 20.959 3.29438C21.0248 3.21737 21.0599 3.11889 21.0579 3.01765C21.0579 2.66567 20.7575 2.54834 20.4571 2.54834H19.7109V4.31764H20.0864V3.61837H20.1005ZM20.0864 2.87216H20.3961C20.5604 2.87216 20.6542 2.93787 20.6542 3.09274C20.6542 3.24761 20.5604 3.32739 20.3961 3.33209H20.0864V2.86278" fill="white"/>
<path d="M21.7199 2.58594H21.3491V4.31769H21.7199V2.58594Z" fill="white"/>
<path d="M23.109 4.31769L22.4238 2.87691L22.4191 2.8816V4.31769H22.0718V2.58594H22.6256L23.2826 3.94694L23.2873 3.94224V2.58594H23.6346V4.31769H23.109Z" fill="white"/>
<path d="M24.3618 3.33214H24.3665L24.939 2.58594H25.3755L24.7372 3.3603L25.4271 4.31769H24.9672L24.3665 3.43539H24.3618V4.31769H23.9863V2.58594H24.3618V3.33214Z" fill="white"/>
<path d="M54.7449 26.1311C44.8049 28.5715 36.9111 29.3083 27.3325 27.1823C15.0648 24.4557 10.7941 24.7044 1.20605 27.1823C7.66376 26.6849 11.9251 28.121 21.2972 31.9224C31.1527 35.9303 40.8158 38.0234 54.7449 35.4234V26.1311Z" fill="white"/>
</g>
<defs>
<clipPath id="clip0">
<rect width="54.745" height="38" fill="white"/>
</clipPath>
</defs>
</svg>
