<svg width="32" height="32" viewBox="0 0 32 32" fill="none" xmlns="http://www.w3.org/2000/svg">
<circle cx="16" cy="16" r="16" fill="white"/>
<path d="M23.3332 10.0067C22.6948 10.457 21.9879 10.8014 21.2398 11.0267C20.8383 10.565 20.3047 10.2378 19.7112 10.0893C19.1177 9.94081 18.4928 9.97817 17.9212 10.1963C17.3496 10.4145 16.8588 10.803 16.5152 11.3092C16.1715 11.8154 15.9916 12.4149 15.9998 13.0267V13.6934C14.8283 13.7237 13.6674 13.4639 12.6205 12.937C11.5737 12.4101 10.6734 11.6325 9.99984 10.6734C9.99984 10.6734 7.33317 16.6734 13.3332 19.34C11.9602 20.272 10.3246 20.7393 8.6665 20.6734C14.6665 24.0067 21.9998 20.6734 21.9998 13.0067C21.9992 12.821 21.9814 12.6358 21.9465 12.4534C22.6269 11.7824 23.1071 10.9352 23.3332 10.0067Z" fill="#337DBF"/>
</svg>
