<svg width="32" height="32" viewBox="0 0 32 32" fill="none" xmlns="http://www.w3.org/2000/svg">
<circle cx="16" cy="16" r="16" fill="white"/>
<path d="M22.5703 12.9372C22.4962 12.6414 22.3454 12.3703 22.1331 12.1514C21.9207 11.9325 21.6544 11.7735 21.361 11.6905C20.2888 11.4287 16.0002 11.4287 16.0002 11.4287C16.0002 11.4287 11.7116 11.4287 10.6394 11.7154C10.346 11.7985 10.0797 11.9575 9.86734 12.1764C9.65501 12.3953 9.50421 12.6663 9.43016 12.9621C9.23394 14.0502 9.13796 15.154 9.14342 16.2596C9.13643 17.3736 9.23242 18.4858 9.43016 19.5821C9.51179 19.8687 9.66598 20.1294 9.87781 20.3391C10.0896 20.5487 10.352 20.7002 10.6394 20.7789C11.7116 21.0656 16.0002 21.0656 16.0002 21.0656C16.0002 21.0656 20.2888 21.0656 21.361 20.7789C21.6544 20.6959 21.9207 20.5369 22.1331 20.318C22.3454 20.0991 22.4962 19.828 22.5703 19.5322C22.765 18.4523 22.8609 17.3569 22.857 16.2596C22.864 15.1457 22.768 14.0335 22.5703 12.9372Z" fill="#337DBF"/>
<path d="M14.5977 18.2977L18.1819 16.2594L14.5977 14.2211V18.2977Z" fill="white"/>
</svg>
