<svg width="32" height="32" viewBox="0 0 32 32" fill="none" xmlns="http://www.w3.org/2000/svg">
<circle cx="16" cy="16" r="16" fill="white"/>
<path d="M19.4288 9.14294H12.5716C10.6781 9.14294 9.14307 10.678 9.14307 12.5715V19.4287C9.14307 21.3222 10.6781 22.8572 12.5716 22.8572H19.4288C21.3223 22.8572 22.8574 21.3222 22.8574 19.4287V12.5715C22.8574 10.678 21.3223 9.14294 19.4288 9.14294Z" stroke="#337DBF" stroke-width="2" stroke-linecap="round" stroke-linejoin="round"/>
<path d="M18.7432 15.5679C18.8278 16.1386 18.7303 16.7215 18.4646 17.2336C18.1989 17.7456 17.7785 18.1609 17.2631 18.4203C16.7478 18.6797 16.1638 18.77 15.5942 18.6783C15.0246 18.5866 14.4984 18.3177 14.0905 17.9098C13.6825 17.5018 13.4136 16.9756 13.3219 16.406C13.2303 15.8364 13.3206 15.2524 13.58 14.7371C13.8393 14.2218 14.2546 13.8014 14.7667 13.5357C15.2788 13.2699 15.8616 13.1725 16.4323 13.2571C17.0144 13.3434 17.5533 13.6147 17.9695 14.0308C18.3856 14.4469 18.6568 14.9858 18.7432 15.5679Z" stroke="#337DBF" stroke-width="2" stroke-linecap="round" stroke-linejoin="round"/>
<path d="M19.7715 12.2284H19.7783" stroke="#337DBF" stroke-width="2" stroke-linecap="round" stroke-linejoin="round"/>
</svg>
